<?xml version="1.0" standalone="no"?>
<!DOCTYPE svg PUBLIC "-//W3C//DTD SVG 20010904//EN"
 "http://www.w3.org/TR/2001/REC-SVG-20010904/DTD/svg10.dtd">
<svg version="1.0" xmlns="http://www.w3.org/2000/svg"
 width="512.000000pt" height="512.000000pt" viewBox="0 0 512.000000 512.000000"
 preserveAspectRatio="xMidYMid meet">
<metadata>
Created by potrace 1.11, written by Peter Selinger 2001-2013
</metadata>
<g transform="translate(0.000000,512.000000) scale(0.100000,-0.100000)"
fill="#000000" stroke="none">
<path d="M1180 3831 c-173 -36 -280 -191 -283 -412 l-2 -90 -55 -15 c-215 -60
-391 -136 -550 -239 -92 -59 -227 -194 -257 -256 -44 -88 -39 -191 10 -242 59
-61 117 -78 281 -82 100 -2 142 -7 169 -20 41 -19 60 -60 48 -102 -5 -15 -89
-190 -188 -388 -185 -372 -243 -517 -243 -602 1 -51 12 -73 46 -91 14 -7 140
-11 393 -12 426 -1 421 -1 464 78 14 26 44 92 67 147 61 146 146 308 175 335
l25 23 25 -23 c30 -28 105 -171 180 -346 65 -151 90 -190 129 -204 19 -6 352
-10 948 -10 811 0 924 2 953 16 37 17 62 59 125 209 43 103 141 298 163 326
22 28 44 29 70 1 22 -24 117 -207 159 -307 9 -22 27 -62 39 -90 12 -27 23 -52
23 -55 1 -3 10 -20 21 -37 37 -62 44 -63 455 -63 417 0 424 1 436 67 18 95
-27 213 -253 667 -96 193 -175 361 -175 375 -3 83 40 104 218 107 147 2 209
17 260 62 47 42 63 80 60 148 -3 82 -36 144 -126 235 -87 88 -188 158 -333
232 -130 66 -160 78 -363 136 l-70 21 1 77 c0 86 -21 187 -53 248 -70 136
-228 205 -405 177 -197 -30 -305 -172 -311 -408 l-2 -97 -70 -18 c-280 -73
-533 -206 -689 -363 -73 -74 -100 -115 -131 -201 -6 -17 -8 -16 -14 11 -14 60
-65 137 -139 206 -163 152 -375 261 -676 347 l-70 20 -2 91 c-4 203 -86 342
-234 396 -49 18 -195 27 -249 15z m1134 -1163 c73 -24 157 -77 207 -130 l38
-41 54 54 c50 49 158 114 204 124 10 2 37 8 60 13 22 5 70 8 105 5 201 -12
335 -155 344 -364 5 -115 -42 -226 -160 -382 -90 -119 -114 -145 -360 -397
-77 -80 -165 -172 -193 -205 l-53 -60 -62 70 c-35 39 -129 138 -209 220 -408
419 -505 568 -494 767 6 104 49 203 116 265 93 85 256 110 403 61z"/>
</g>
</svg>
